REM MD5 661b8005848483d564ccfcff5f1b67c4
FILE "Play It (Europe).bin" BINARY
  TRACK 01 MODE2/2352
    INDEX 01 00:00:00
  TRACK 02 AUDIO
    INDEX 00 38:08:19
    INDEX 01 38:10:19
  TRACK 03 AUDIO
    INDEX 00 43:45:31
    INDEX 01 43:47:31
  TRACK 04 AUDIO
    INDEX 00 47:17:34
    INDEX 01 47:19:34
  TRACK 05 AUDIO
    INDEX 00 50:49:58
    INDEX 01 50:51:58
REM LEADOUT 54:04:38
